<svg xmlns="http://www.w3.org/2000/svg" width="1024" height="1024" viewBox="0 0 1024 1024" version="1.1"><path d="M 493.590 165.035 C 430.378 167.924, 371.662 175.441, 309.854 188.557 C 279.680 194.960, 249.296 200.700, 180.133 213.061 C 91.102 228.972, 59.691 234.845, 55.265 236.407 C 45.676 239.790, 40.265 243.489, 30.444 253.376 C 20.544 263.343, -0 286.326, -0 287.434 C -0 287.747, 230.475 287.889, 512.167 287.751 C 926.296 287.548, 1024.383 287.256, 1024.592 286.225 C 1024.734 285.524, 1024.622 285.409, 1024.343 285.970 C 1023.846 286.971, 1009.979 271.326, 1000.882 259.500 C 992.267 248.299, 982.776 241.085, 970.660 236.524 C 966.927 235.119, 953.888 232.151, 941.686 229.928 C 929.484 227.706, 896.550 221.440, 868.500 216.005 C 802.098 203.139, 759.408 195.082, 728.500 189.583 C 714.750 187.137, 688.875 182.414, 671 179.088 C 634.945 172.380, 612.746 168.878, 591 166.468 C 573.606 164.540, 521.266 163.771, 493.590 165.035 M 18.357 332.992 C 15.288 334.230, 13 337.932, 13 341.659 C 13 343.426, 14.129 349.514, 15.509 355.186 C 16.889 360.859, 19.598 376.300, 21.529 389.500 C 26.485 423.388, 28.193 429.328, 34.597 434.951 C 36.453 436.581, 40.341 438.721, 43.236 439.707 C 48.263 441.419, 69.275 441.512, 509.810 441.764 L 971.120 442.027 980.429 437.560 C 992.699 431.671, 995.633 429.104, 997.457 422.663 C 1000.227 412.884, 1007.882 367.159, 1011.564 338.405 L 1012.217 333.309 1005.358 332.662 C 994.890 331.673, 20.817 331.999, 18.357 332.992 M 57.578 476.250 C 57.079 481.767, 58.241 495.690, 62.442 534.500 C 65.479 562.550, 69.716 601.954, 71.859 622.064 C 75.809 659.127, 76.473 662.403, 80.831 666.347 C 86.151 671.162, 62.565 670.909, 511.568 670.956 C 973.083 671.004, 938.788 671.461, 945.658 665.172 C 949.839 661.344, 952.608 655.717, 953.888 648.446 C 955.859 637.252, 965.807 527.544, 967.983 493 C 968.555 483.925, 969.248 474.813, 969.523 472.750 L 970.024 469 514.129 469 L 58.235 469 57.578 476.250 M 503.638 503.553 C 491.027 518.843, 474.983 544.752, 468.684 560 C 464.968 568.996, 462 581.339, 462 587.798 C 462 593.455, 465.527 606.338, 468.435 611.298 C 471.797 617.037, 478.568 623.979, 485.131 628.418 C 503.117 640.584, 528.669 637.995, 545.078 622.344 C 558.287 609.745, 562.920 591.834, 557.994 572.410 C 554.067 556.924, 538.816 529.655, 521.309 506.815 C 511.930 494.579, 511.158 494.437, 503.638 503.553 M 479.523 575.250 C 475.997 585.893, 476.149 592.977, 480.071 600.826 C 483.379 607.447, 487.337 611.284, 494.782 615.089 C 498.753 617.118, 500.950 617.500, 508.664 617.500 C 521.569 617.500, 522.785 615.939, 511.865 613.391 C 495.610 609.599, 484.043 596.456, 483.157 580.769 C 482.874 575.771, 482.403 574, 481.356 574 C 480.576 574, 479.751 574.563, 479.523 575.250 M 95.326 705.250 C 95.676 712.538, 97.286 727.050, 98.905 737.500 C 103.008 763.973, 103.839 770.595, 104.971 785.813 C 105.685 795.406, 106.539 800.431, 108.030 803.800 C 112.819 814.626, 116.849 816.247, 147.205 819.557 C 160.017 820.954, 192.775 824.756, 220 828.006 C 329.787 841.113, 358.702 843.274, 447.161 844.983 C 513.514 846.265, 602.425 844.731, 679 840.982 C 726.632 838.649, 753.420 835.739, 840.500 823.435 C 898.929 815.180, 908.172 813.641, 912.756 811.408 C 915.646 810, 918.410 808.094, 918.898 807.174 C 920.090 804.923, 924.219 773.536, 928.459 734.500 C 930.371 716.900, 932.207 700.138, 932.539 697.250 L 933.144 692 513.918 692 L 94.692 692 95.326 705.250" stroke="none" fill="#0057aa" fill-rule="evenodd"/><path d="M 493.590 165.035 C 430.378 167.924, 371.662 175.441, 309.854 188.557 C 279.680 194.960, 249.296 200.700, 180.133 213.061 C 91.102 228.972, 59.691 234.845, 55.265 236.407 C 45.676 239.790, 40.265 243.489, 30.444 253.376 C 20.544 263.343, -0 286.326, -0 287.434 C -0 287.747, 230.475 287.889, 512.167 287.751 C 926.296 287.548, 1024.383 287.256, 1024.592 286.225 C 1024.734 285.524, 1024.622 285.409, 1024.343 285.970 C 1023.846 286.971, 1009.979 271.326, 1000.882 259.500 C 992.267 248.299, 982.776 241.085, 970.660 236.524 C 966.927 235.119, 953.888 232.151, 941.686 229.928 C 929.484 227.706, 896.550 221.440, 868.500 216.005 C 802.098 203.139, 759.408 195.082, 728.500 189.583 C 714.750 187.137, 688.875 182.414, 671 179.088 C 634.945 172.380, 612.746 168.878, 591 166.468 C 573.606 164.540, 521.266 163.771, 493.590 165.035 M 18.357 332.992 C 15.288 334.230, 13 337.932, 13 341.659 C 13 343.426, 14.129 349.514, 15.509 355.186 C 16.889 360.859, 19.598 376.300, 21.529 389.500 C 26.485 423.388, 28.193 429.328, 34.597 434.951 C 36.453 436.581, 40.341 438.721, 43.236 439.707 C 48.263 441.419, 69.275 441.512, 509.810 441.764 L 971.120 442.027 980.429 437.560 C 992.699 431.671, 995.633 429.104, 997.457 422.663 C 1000.227 412.884, 1007.882 367.159, 1011.564 338.405 L 1012.217 333.309 1005.358 332.662 C 994.890 331.673, 20.817 331.999, 18.357 332.992 M 57.578 476.250 C 57.079 481.767, 58.241 495.690, 62.442 534.500 C 65.479 562.550, 69.716 601.954, 71.859 622.064 C 75.809 659.127, 76.473 662.403, 80.831 666.347 C 86.151 671.162, 62.565 670.909, 511.568 670.956 C 973.083 671.004, 938.788 671.461, 945.658 665.172 C 949.839 661.344, 952.608 655.717, 953.888 648.446 C 955.859 637.252, 965.807 527.544, 967.983 493 C 968.555 483.925, 969.248 474.813, 969.523 472.750 L 970.024 469 514.129 469 L 58.235 469 57.578 476.250 M 503.638 503.553 C 491.027 518.843, 474.983 544.752, 468.684 560 C 464.968 568.996, 462 581.339, 462 587.798 C 462 593.455, 465.527 606.338, 468.435 611.298 C 471.797 617.037, 478.568 623.979, 485.131 628.418 C 503.117 640.584, 528.669 637.995, 545.078 622.344 C 558.287 609.745, 562.920 591.834, 557.994 572.410 C 554.067 556.924, 538.816 529.655, 521.309 506.815 C 511.930 494.579, 511.158 494.437, 503.638 503.553 M 479.523 575.250 C 475.997 585.893, 476.149 592.977, 480.071 600.826 C 483.379 607.447, 487.337 611.284, 494.782 615.089 C 498.753 617.118, 500.950 617.500, 508.664 617.500 C 521.569 617.500, 522.785 615.939, 511.865 613.391 C 495.610 609.599, 484.043 596.456, 483.157 580.769 C 482.874 575.771, 482.403 574, 481.356 574 C 480.576 574, 479.751 574.563, 479.523 575.250 M 95.326 705.250 C 95.676 712.538, 97.286 727.050, 98.905 737.500 C 103.008 763.973, 103.839 770.595, 104.971 785.813 C 105.685 795.406, 106.539 800.431, 108.030 803.800 C 112.819 814.626, 116.849 816.247, 147.205 819.557 C 160.017 820.954, 192.775 824.756, 220 828.006 C 329.787 841.113, 358.702 843.274, 447.161 844.983 C 513.514 846.265, 602.425 844.731, 679 840.982 C 726.632 838.649, 753.420 835.739, 840.500 823.435 C 898.929 815.180, 908.172 813.641, 912.756 811.408 C 915.646 810, 918.410 808.094, 918.898 807.174 C 920.090 804.923, 924.219 773.536, 928.459 734.500 C 930.371 716.900, 932.207 700.138, 932.539 697.250 L 933.144 692 513.918 692 L 94.692 692 95.326 705.250" stroke="none" fill="#0057aa" fill-rule="evenodd"/><path d="" stroke="none" fill="#000000" fill-rule="evenodd"/><path d="" stroke="none" fill="#000000" fill-rule="evenodd"/><path d="M 501.954 506.191 C 485.632 527.293, 470.853 552.696, 466.122 567.784 C 458.911 590.785, 463.019 608.661, 478.846 623.151 C 493.706 636.756, 513.851 639.517, 532.753 630.540 C 546.487 624.018, 556.581 610.330, 559.281 594.569 C 561.631 580.849, 556.279 562.499, 543.512 540.500 C 531.585 519.950, 515.058 497.737, 511.290 497.191 C 509.624 496.949, 507.573 498.926, 501.954 506.191 M 480.258 574.261 C 476.185 579.473, 475.821 593.241, 479.557 600.739 C 485.578 612.821, 499.889 620.138, 513.650 618.169 C 520.614 617.173, 519.944 615.126, 512 613.124 C 495.587 608.989, 484.523 596.387, 483.237 580.362 C 482.704 573.727, 481.924 572.129, 480.258 574.261" stroke="none" fill="#fafafb" fill-rule="evenodd"/><path d="" stroke="none" fill="#0454ac" fill-rule="evenodd"/></svg>